<?xml version="1.0" encoding="iso-8859-1"?>
<!-- Generator: Adobe Illustrator 19.0.0, SVG Export Plug-In . SVG Version: 6.00 Build 0)  -->
<svg xmlns="http://www.w3.org/2000/svg" xmlns:xlink="http://www.w3.org/1999/xlink" version="1.1" id="Capa_1" x="0px" y="0px" viewBox="0 0 512 512" style="enable-background:new 0 0 512 512;" xml:space="preserve">
<g>
	<g>
		<g>
			<path d="M256,0C114.615,0,0,114.615,0,256s114.615,256,256,256s256-114.615,256-256S397.385,0,256,0z M256,480     C132.288,480,32,379.712,32,256S132.288,32,256,32s224,100.288,224,224S379.712,480,256,480z"/>
			<path d="M176,176c17.673,0,32,14.327,32,32h32c0-35.346-28.654-64-64-64c-35.346,0-64,28.654-64,64h32     C144,190.327,158.327,176,176,176z"/>
			<path d="M336,144c-35.346,0-64,28.654-64,64h32c0-17.673,14.327-32,32-32c17.673,0,32,14.327,32,32h32     C400,172.654,371.346,144,336,144z"/>
			<path d="M313.92,307.04l-35.52,25.28l-35.52-25.28c-5.555-3.955-13.005-3.955-18.56,0l-35.52,25.28l-35.52-25.28l-18.56,25.92     l44.8,32c5.555,3.955,13.005,3.955,18.56,0l35.52-25.28l35.52,25.28c5.555,3.955,13.005,3.955,18.56,0l35.52-25.44l35.52,25.44     l18.56-26.08l-44.8-32C326.891,302.973,319.44,303.037,313.92,307.04z"/>
		</g>
	</g>
</g>
<g>
</g>
<g>
</g>
<g>
</g>
<g>
</g>
<g>
</g>
<g>
</g>
<g>
</g>
<g>
</g>
<g>
</g>
<g>
</g>
<g>
</g>
<g>
</g>
<g>
</g>
<g>
</g>
<g>
</g>
</svg>
