<?xml version="1.0" encoding="iso-8859-1"?>
<!-- Generator: Adobe Illustrator 19.0.0, SVG Export Plug-In . SVG Version: 6.00 Build 0)  -->
<svg xmlns="http://www.w3.org/2000/svg" xmlns:xlink="http://www.w3.org/1999/xlink" version="1.1" id="Capa_1" x="0px" y="0px" viewBox="0 0 512 512" style="enable-background:new 0 0 512 512;" xml:space="preserve">
<g>
	<g>
		<g>
			<path d="M256,0C114.615,0,0,114.615,0,256s114.615,256,256,256s256-114.615,256-256S397.385,0,256,0z M256,480     C132.288,480,32,379.712,32,256S132.288,32,256,32s224,100.288,224,224S379.712,480,256,480z"/>
			<path d="M336,192c-17.673,0-32-14.327-32-32h-32c0,35.346,28.654,64,64,64c35.346,0,64-28.654,64-64h-32     C368,177.673,353.673,192,336,192z"/>
			<path d="M240,160h-32c0,17.673-14.327,32-32,32s-32-14.327-32-32h-32c0,35.346,28.654,64,64,64C211.346,224,240,195.346,240,160z     "/>
			<path d="M176,365.404c-0.024,0.865-0.024,1.731,0,2.596v16h32v-16c-0.741-8.096,5.222-15.259,13.318-16     c0.892-0.082,1.79-0.082,2.682,0h96v-32h-96C198.207,319.283,176.717,339.611,176,365.404z"/>
		</g>
	</g>
</g>
<g>
</g>
<g>
</g>
<g>
</g>
<g>
</g>
<g>
</g>
<g>
</g>
<g>
</g>
<g>
</g>
<g>
</g>
<g>
</g>
<g>
</g>
<g>
</g>
<g>
</g>
<g>
</g>
<g>
</g>
</svg>
