<?xml version="1.0" encoding="iso-8859-1"?>
<!-- Generator: Adobe Illustrator 19.0.0, SVG Export Plug-In . SVG Version: 6.00 Build 0)  -->
<svg xmlns="http://www.w3.org/2000/svg" xmlns:xlink="http://www.w3.org/1999/xlink" version="1.1" id="Capa_1" x="0px" y="0px" viewBox="0 0 512 512" style="enable-background:new 0 0 512 512;" xml:space="preserve">
<g>
	<g>
		<g>
			<path d="M256,0C114.615,0,0,114.615,0,256s114.615,256,256,256s256-114.615,256-256S397.385,0,256,0z M256,480     C132.288,480,32,379.712,32,256S132.288,32,256,32s224,100.288,224,224S379.712,480,256,480z"/>
			<polygon points="139.36,251.36 176,214.56 212.64,251.36 235.36,228.64 198.56,192 235.36,155.36 212.64,132.64 176,169.44      139.36,132.64 116.64,155.36 153.44,192 116.64,228.64    "/>
			<polygon points="372.64,132.64 336,169.44 299.36,132.64 276.64,155.36 313.44,192 276.64,228.64 299.36,251.36 336,214.56      372.64,251.36 395.36,228.64 358.56,192 395.36,155.36    "/>
			<path d="M320,304H192c-35.346,0-64,28.654-64,64h32c0-17.673,14.327-32,32-32h128c17.673,0,32,14.327,32,32h32     C384,332.654,355.346,304,320,304z"/>
		</g>
	</g>
</g>
<g>
</g>
<g>
</g>
<g>
</g>
<g>
</g>
<g>
</g>
<g>
</g>
<g>
</g>
<g>
</g>
<g>
</g>
<g>
</g>
<g>
</g>
<g>
</g>
<g>
</g>
<g>
</g>
<g>
</g>
</svg>
