<?xml version="1.0" encoding="iso-8859-1"?>
<!-- Generator: Adobe Illustrator 19.0.0, SVG Export Plug-In . SVG Version: 6.00 Build 0)  -->
<svg xmlns="http://www.w3.org/2000/svg" xmlns:xlink="http://www.w3.org/1999/xlink" version="1.1" id="Capa_1" x="0px" y="0px" viewBox="0 0 512 512" style="enable-background:new 0 0 512 512;" xml:space="preserve">
<g>
	<g>
		<g>
			<path d="M256,0C114.615,0,0,114.615,0,256s114.615,256,256,256s256-114.615,256-256S397.385,0,256,0z M256,480     C132.288,480,32,379.712,32,256S132.288,32,256,32s224,100.288,224,224S379.712,480,256,480z"/>
			<path d="M416,144H96c-8.837,0-16,7.163-16,16v48c0,26.51,21.49,48,48,48h64c26.51,0,48-21.49,48-48v-32h32v32     c0,26.51,21.49,48,48,48h64c26.51,0,48-21.49,48-48v-48C432,151.163,424.837,144,416,144z"/>
			<path d="M368.8,272c-5.037-0.255-9.899,1.88-13.12,5.76c-8.8,10.56-51.68,64-35.52,98.88c4.96,10.72,17.44,23.36,48,23.36     c16.015,1.752,31.562-6.084,39.68-20c17.28-32-18.88-89.6-26.4-100.8C378.624,274.913,373.924,272.235,368.8,272z M379.36,364.8     c-1.6,2.88-9.12,3.2-11.36,3.2c-12.16,0-17.76-2.72-18.88-4.96c-3.52-7.36,5.12-27.04,17.44-45.92     C376.64,336.96,384,357.6,379.36,364.8z"/>
			<rect x="160" y="352" width="128" height="32"/>
		</g>
	</g>
</g>
<g>
</g>
<g>
</g>
<g>
</g>
<g>
</g>
<g>
</g>
<g>
</g>
<g>
</g>
<g>
</g>
<g>
</g>
<g>
</g>
<g>
</g>
<g>
</g>
<g>
</g>
<g>
</g>
<g>
</g>
</svg>
