<?xml version="1.0" encoding="iso-8859-1"?>
<!-- Generator: Adobe Illustrator 19.0.0, SVG Export Plug-In . SVG Version: 6.00 Build 0)  -->
<svg xmlns="http://www.w3.org/2000/svg" xmlns:xlink="http://www.w3.org/1999/xlink" version="1.1" id="Capa_1" x="0px" y="0px" viewBox="0 0 512 512" style="enable-background:new 0 0 512 512;" xml:space="preserve">
<g>
	<g>
		<g>
			<path d="M256,0C114.615,0,0,114.615,0,256s114.615,256,256,256s256-114.615,256-256S397.385,0,256,0z M256,480     C132.288,480,32,379.712,32,256S132.288,32,256,32s224,100.288,224,224S379.712,480,256,480z"/>
			<circle cx="176" cy="176" r="32"/>
			<circle cx="336" cy="176" r="32"/>
			<path d="M288,272c-26.51,0-48,21.49-48,48c0,8.837-7.163,16-16,16s-16-7.163-16-16s7.163-16,16-16v-32c-26.51,0-48,21.49-48,48     c0,26.51,21.49,48,48,48c26.51,0,48-21.49,48-48c0-8.837,7.163-16,16-16s16,7.163,16,16s-7.163,16-16,16v32     c26.51,0,48-21.49,48-48C336,293.49,314.51,272,288,272z"/>
		</g>
	</g>
</g>
<g>
</g>
<g>
</g>
<g>
</g>
<g>
</g>
<g>
</g>
<g>
</g>
<g>
</g>
<g>
</g>
<g>
</g>
<g>
</g>
<g>
</g>
<g>
</g>
<g>
</g>
<g>
</g>
<g>
</g>
</svg>
