<?xml version="1.0" encoding="iso-8859-1"?>
<!-- Generator: Adobe Illustrator 19.0.0, SVG Export Plug-In . SVG Version: 6.00 Build 0)  -->
<svg xmlns="http://www.w3.org/2000/svg" xmlns:xlink="http://www.w3.org/1999/xlink" version="1.1" id="Capa_1" x="0px" y="0px" viewBox="0 0 512 512" style="enable-background:new 0 0 512 512;" xml:space="preserve">
<g>
	<g>
		<g>
			<path d="M256,0C114.615,0,0,114.615,0,256s114.615,256,256,256s256-114.615,256-256S397.385,0,256,0z M256,480     C132.288,480,32,379.712,32,256S132.288,32,256,32s224,100.288,224,224S379.712,480,256,480z"/>
			<path d="M416,144H96c-8.837,0-16,7.163-16,16v48c0,26.51,21.49,48,48,48h64c26.51,0,48-21.49,48-48v-32h32v32     c0,26.51,21.49,48,48,48h64c26.51,0,48-21.49,48-48v-48C432,151.163,424.837,144,416,144z"/>
			<path d="M176,349.404c-0.024,0.865-0.024,1.731,0,2.596v16h32v-16c-0.741-8.096,5.222-15.259,13.318-16     c0.892-0.082,1.79-0.082,2.682,0h96v-32h-96C198.207,303.283,176.717,323.611,176,349.404z"/>
		</g>
	</g>
</g>
<g>
</g>
<g>
</g>
<g>
</g>
<g>
</g>
<g>
</g>
<g>
</g>
<g>
</g>
<g>
</g>
<g>
</g>
<g>
</g>
<g>
</g>
<g>
</g>
<g>
</g>
<g>
</g>
<g>
</g>
</svg>
