<?xml version="1.0" encoding="iso-8859-1"?>
<!-- Generator: Adobe Illustrator 19.0.0, SVG Export Plug-In . SVG Version: 6.00 Build 0)  -->
<svg xmlns="http://www.w3.org/2000/svg" xmlns:xlink="http://www.w3.org/1999/xlink" version="1.1" id="Capa_1" x="0px" y="0px" viewBox="0 0 512 512" style="enable-background:new 0 0 512 512;" xml:space="preserve">
<g>
	<g>
		<g>
			<path d="M256,0C114.615,0,0,114.615,0,256s114.615,256,256,256s256-114.615,256-256S397.385,0,256,0z M256,480     C132.288,480,32,379.712,32,256S132.288,32,256,32s224,100.288,224,224S379.712,480,256,480z"/>
			<path d="M176,176c17.673,0,32,14.327,32,32h32c0-35.346-28.654-64-64-64c-35.346,0-64,28.654-64,64h32     C144,190.327,158.327,176,176,176z"/>
			<path d="M336,144c-35.346,0-64,28.654-64,64h32c0-17.673,14.327-32,32-32c17.673,0,32,14.327,32,32h32     C400,172.654,371.346,144,336,144z"/>
			<path d="M304,320c-17.673,0-32-14.327-32-32h-32c0,17.673-14.327,32-32,32s-32-14.327-32-32h-32     c0.227,35.345,29.064,63.815,64.409,63.588c18.225-0.117,35.536-7.999,47.591-21.668c23.379,26.51,63.821,29.049,90.332,5.671     C360.001,323.536,367.883,306.225,368,288h-32C336,305.673,321.673,320,304,320z"/>
		</g>
	</g>
</g>
<g>
</g>
<g>
</g>
<g>
</g>
<g>
</g>
<g>
</g>
<g>
</g>
<g>
</g>
<g>
</g>
<g>
</g>
<g>
</g>
<g>
</g>
<g>
</g>
<g>
</g>
<g>
</g>
<g>
</g>
</svg>
