<?xml version="1.0" encoding="iso-8859-1"?>
<!-- Generator: Adobe Illustrator 19.0.0, SVG Export Plug-In . SVG Version: 6.00 Build 0)  -->
<svg xmlns="http://www.w3.org/2000/svg" xmlns:xlink="http://www.w3.org/1999/xlink" version="1.1" id="Capa_1" x="0px" y="0px" viewBox="0 0 512 512" style="enable-background:new 0 0 512 512;" xml:space="preserve">
<g>
	<g>
		<g>
			<path d="M256,0C114.615,0,0,114.615,0,256s114.615,256,256,256s256-114.615,256-256S397.385,0,256,0z M256,480     C132.288,480,32,379.712,32,256S132.288,32,256,32s224,100.288,224,224S379.712,480,256,480z"/>
			<path d="M222.72,214.08c2.465-5.99,1.075-12.875-3.52-17.44l-64-64l-22.56,22.72l36.8,36.64H128v32h80     C214.459,223.968,220.266,220.055,222.72,214.08z"/>
			<path d="M379.36,155.36l-22.72-22.72l-64,64c-6.274,6.223-6.316,16.353-0.093,22.627c3.027,3.052,7.155,4.758,11.453,4.733h80     v-32h-41.44L379.36,155.36z"/>
			<path d="M256,256c-53.019,0-96,42.981-96,96s42.981,96,96,96s96-42.981,96-96S309.019,256,256,256z M256,416     c-15.501-0.061-30.454-5.747-42.08-16c24.083-20.946,59.917-20.946,84,0C286.335,410.217,271.446,415.9,256,416z M316.16,373.12     c-35.102-28.166-85.058-28.166-120.16,0c-2.514-6.764-3.867-13.905-4-21.12c0-35.346,28.654-64,64-64c35.346,0,64,28.654,64,64     C319.918,359.206,318.62,366.346,316.16,373.12z"/>
		</g>
	</g>
</g>
<g>
</g>
<g>
</g>
<g>
</g>
<g>
</g>
<g>
</g>
<g>
</g>
<g>
</g>
<g>
</g>
<g>
</g>
<g>
</g>
<g>
</g>
<g>
</g>
<g>
</g>
<g>
</g>
<g>
</g>
</svg>
