<?xml version="1.0" encoding="iso-8859-1"?>
<!-- Generator: Adobe Illustrator 19.0.0, SVG Export Plug-In . SVG Version: 6.00 Build 0)  -->
<svg xmlns="http://www.w3.org/2000/svg" xmlns:xlink="http://www.w3.org/1999/xlink" version="1.1" id="Capa_1" x="0px" y="0px" viewBox="0 0 512 512" style="enable-background:new 0 0 512 512;" xml:space="preserve">
<g>
	<g>
		<g>
			<path d="M256,0C114.615,0,0,114.615,0,256s114.615,256,256,256s256-114.615,256-256S397.385,0,256,0z M256,480     C132.288,480,32,379.712,32,256S132.288,32,256,32s224,100.288,224,224S379.712,480,256,480z"/>
			<circle cx="176" cy="176" r="32"/>
			<circle cx="336" cy="176" r="32"/>
			<path d="M256,256c-35.346,0-64,28.654-64,64c0,35.346,28.654,64,64,64c35.346,0,64-28.654,64-64C320,284.654,291.346,256,256,256     z M256,352c-17.673,0-32-14.327-32-32c0-17.673,14.327-32,32-32c17.673,0,32,14.327,32,32C288,337.673,273.673,352,256,352z"/>
		</g>
	</g>
</g>
<g>
</g>
<g>
</g>
<g>
</g>
<g>
</g>
<g>
</g>
<g>
</g>
<g>
</g>
<g>
</g>
<g>
</g>
<g>
</g>
<g>
</g>
<g>
</g>
<g>
</g>
<g>
</g>
<g>
</g>
</svg>
