<?xml version="1.0" encoding="iso-8859-1"?>
<!-- Generator: Adobe Illustrator 19.0.0, SVG Export Plug-In . SVG Version: 6.00 Build 0)  -->
<svg xmlns="http://www.w3.org/2000/svg" xmlns:xlink="http://www.w3.org/1999/xlink" version="1.1" id="Capa_1" x="0px" y="0px" viewBox="0 0 512 512" style="enable-background:new 0 0 512 512;" xml:space="preserve">
<g>
	<g>
		<g>
			<path d="M256,0C114.615,0,0,114.615,0,256s114.615,256,256,256s256-114.615,256-256S397.385,0,256,0z M256,480     C132.288,480,32,379.712,32,256S132.288,32,256,32s224,100.288,224,224S379.712,480,256,480z"/>
			<path d="M336,192c-17.673,0-32-14.327-32-32h-32c0,35.346,28.654,64,64,64c35.346,0,64-28.654,64-64h-32     C368,177.673,353.673,192,336,192z"/>
			<path d="M176,224c35.346,0,64-28.654,64-64h-32c0,17.673-14.327,32-32,32s-32-14.327-32-32h-32C112,195.346,140.654,224,176,224z     "/>
			<path d="M320,272H192c-35.346,0-64,28.654-64,64c0,35.346,28.654,64,64,64h128c35.346,0,64-28.654,64-64     C384,300.654,355.346,272,320,272z M320,368H192c-17.673,0-32-14.327-32-32c0-17.673,14.327-32,32-32h128     c17.673,0,32,14.327,32,32C352,353.673,337.673,368,320,368z"/>
		</g>
	</g>
</g>
<g>
</g>
<g>
</g>
<g>
</g>
<g>
</g>
<g>
</g>
<g>
</g>
<g>
</g>
<g>
</g>
<g>
</g>
<g>
</g>
<g>
</g>
<g>
</g>
<g>
</g>
<g>
</g>
<g>
</g>
</svg>
