<?xml version="1.0" encoding="utf-8"?>
<!-- Generator: Adobe Illustrator 22.1.0, SVG Export Plug-In . SVG Version: 6.00 Build 0)  -->
<svg version="1.0" id="Layer_1" xmlns="http://www.w3.org/2000/svg" xmlns:xlink="http://www.w3.org/1999/xlink" x="0px" y="0px"
	 viewBox="0 0 441.8 136.1" style="enable-background:new 0 0 441.8 136.1;" xml:space="preserve">
<g>
	<path d="M18.9,136.1H0V0h50.1c25.5,0,39.4,15,39.4,40c0,21.2-11.3,35.5-31.6,38L91,136.1H69.9l-31-56.7H18.8L18.9,136.1L18.9,136.1
		z M48.5,64c13.6,0,21.1-6.8,21.1-19.3v-9.4c0-12.5-7.4-19.3-21.1-19.3H18.9v48L48.5,64L48.5,64z"/>
	<path d="M133.1,26h-1.6v110.1h-16.8V0H140l43.7,110.1h1.6V0h16.8v136.1h-25.3L133.1,26z"/>
	<path d="M234.3,0h39.2c33.7,0,50.3,23.6,50.3,68s-16.6,68-50.3,68h-39.2V0z M272.5,120.1c20.7,0,31.4-15,31.4-41.1V57.1
		c0-26.1-10.7-41.1-31.4-41.1H253v104.1H272.5z"/>
	<path d="M369.7,136.1h-18.9V0h50.1c25.5,0,39.4,15,39.4,40c0,21.2-11.3,35.5-31.6,38l33.1,58.1h-21.1l-31-56.7h-20.1L369.7,136.1
		L369.7,136.1z M399.4,64c13.6,0,21.1-6.8,21.1-19.3v-9.4c0-12.5-7.4-19.3-21.1-19.3h-29.6v48L399.4,64L399.4,64z"/>
</g>
</svg>
