<?xml version="1.0" encoding="utf-8"?>
<!-- Generator: Adobe Illustrator 22.1.0, SVG Export Plug-In . SVG Version: 6.00 Build 0)  -->
<svg version="1.0" id="Ebene_1" xmlns="http://www.w3.org/2000/svg" xmlns:xlink="http://www.w3.org/1999/xlink" x="0px" y="0px"
	 viewBox="0 0 140.4 14.1" style="enable-background:new 0 0 140.4 14.1;" xml:space="preserve">
<style type="text/css">
	.st0{fill:#1D1D1B;}
</style>
<title>Praktikumbericht</title>
<g>
	<path class="st0" d="M4.7,8.6H1.9v5.1c0,0.1-0.1,0.1-0.1,0.1c0,0,0,0,0,0H0.2c-0.1,0-0.1-0.1-0.1-0.1l0.1-7L0,0.1
		C0,0.1,0.1,0,0.2,0h4.6c3,0,4.9,1.4,4.9,4.2S7.7,8.6,4.7,8.6z M1.9,6.8v0.3h3c1.8,0,3-0.8,3-2.8c0-1.9-1.1-2.8-3.1-2.8H1.9L1.9,6.8
		z"/>
	<path class="st0" d="M10.4,13.8c-0.1,0-0.1-0.1-0.1-0.1c0,0,0,0,0,0l0.1-5.1l-0.1-4.8c0-0.1,0.1-0.1,0.1-0.1l0,0h1.5
		C12,3.7,12,3.7,12,3.8v1.7c0.7-1.3,2-2,3.5-2c0.2,0,0.4,0,0.6,0.1c0.1,0,0.1,0.1,0.1,0.2V5c0,0.1-0.1,0.1-0.1,0.1c0,0,0,0,0,0
		c-0.2,0-0.4,0-0.6,0C13.6,5,12.1,6.5,12,8.3c0,0,0,0.1,0,0.1v5.3c0,0.1,0,0.1-0.1,0.1c0,0,0,0,0,0L10.4,13.8z"/>
	<path class="st0" d="M23.7,13.8c-0.1,0-0.1-0.1-0.1-0.1v-1.5c-0.7,1.2-1.9,1.9-3.3,1.8c-2.7,0-4.2-2.3-4.2-5.3s1.6-5.3,4.3-5.3
		c1.3-0.1,2.5,0.6,3.2,1.7V3.8c0-0.1,0.1-0.1,0.1-0.1h1.5c0.1,0,0.1,0.1,0.1,0.1c0,0,0,0,0,0v4.9v5c0,0.1,0,0.1-0.1,0.1c0,0,0,0,0,0
		L23.7,13.8z M20.8,12.7c1.8,0,2.8-1.3,2.8-3.9c0-2.6-0.9-3.9-2.6-4.1h-0.3c-1.9,0.1-2.7,1.6-2.7,3.9C17.9,11.1,18.9,12.7,20.8,12.7
		z"/>
	<path class="st0" d="M31.8,12.2l-2.2-3.5l-1.3,1.4v3.6c0,0.1,0,0.1-0.1,0.1c0,0,0,0,0,0h-1.5c-0.1,0-0.1-0.1-0.1-0.1L26.6,7
		l-0.1-6.9c0-0.1,0.1-0.1,0.1-0.1c0,0,0,0,0,0h1.5c0.1,0,0.1,0.1,0.1,0.1c0,0,0,0,0,0v6.8v1l3.8-4.2c0.1-0.1,0.2-0.1,0.2-0.1h1.8
		c0,0,0,0.1,0,0.1c0,0,0,0,0,0l-3.3,3.6l3.8,6.3c0,0,0,0.1,0,0.1c0,0,0,0-0.1,0h-1.8c-0.1,0-0.2-0.1-0.2-0.1L31.8,12.2z"/>
	<path class="st0" d="M40.3,13.6c0,0.1-0.1,0.2-0.1,0.2c-0.5,0.1-0.9,0.2-1.4,0.3c-1.5,0-2.8-0.8-2.8-3V5h-1.2
		c-0.1,0-0.1-0.1-0.1-0.1V3.8c0-0.1,0.1-0.1,0.1-0.1H36V1.2c0-0.1,0.1-0.1,0.1-0.1h1.5c0.1,0,0.1,0.1,0.1,0.1v2.4h2.4
		c0.1,0,0.1,0.1,0.1,0.1v1.1c0,0.1-0.1,0.1-0.1,0.1h-2.4V11c0,1.2,0.4,1.6,1.3,1.6c0.4,0,0.7,0,1.1-0.1c0.1,0,0.1,0,0.1,0.1
		c0,0,0,0,0,0L40.3,13.6z"/>
	<path class="st0" d="M41,13.8c-0.1,0-0.1-0.1-0.1-0.1V8.6V3.8c0-0.1,0.1-0.1,0.1-0.1h1.6c0.1,0,0.1,0.1,0.1,0.1c0,0,0,0,0,0v4.8
		v5.1c0,0.1,0,0.1-0.1,0.1c0,0,0,0,0,0H41z M41,2.5c-0.1,0-0.1-0.1-0.1-0.1V0.7c0-0.1,0.1-0.1,0.1-0.1h1.6c0.1,0,0.1,0.1,0.1,0.1
		c0,0,0,0,0,0v1.7c0,0.1,0,0.1-0.1,0.1c0,0,0,0,0,0L41,2.5z"/>
	<path class="st0" d="M49.2,12.2l-2.2-3.5l-1.3,1.4v3.6c0,0.1-0.1,0.1-0.1,0.1h-1.5c-0.1,0-0.1-0.1-0.1-0.1L44.1,7L44,0.1
		C44,0.1,44.1,0,44.1,0h1.5c0.1,0,0.1,0.1,0.1,0.1v6.8v1l3.9-4.3c0.1-0.1,0.2-0.1,0.2-0.1h1.8c0,0,0,0.1,0,0.1c0,0,0,0,0,0l-3.4,3.7
		l3.8,6.3c0,0,0,0.1,0,0.1c0,0,0,0-0.1,0h-1.8c-0.1,0-0.2-0.1-0.2-0.1L49.2,12.2z"/>
	<path class="st0" d="M55.7,14.1c-2.1,0-3.4-1.4-3.4-4.1V8V3.8c0-0.1,0.1-0.1,0.1-0.1H54c0.1,0,0.1,0.1,0.1,0.1V8v2
		c0,1.8,0.9,2.7,2.1,2.7c1.3,0,2.4-1.1,2.7-3.1V8V3.8c0-0.1,0.1-0.1,0.1-0.1h1.6c0.1,0,0.1,0.1,0.1,0.1c0,0,0,0,0,0v4.5v5.4
		c0,0.1,0,0.1-0.1,0.1c0,0,0,0,0,0h-1.5c-0.1,0-0.1-0.1-0.1-0.1l0.1-1.6C58.4,13.3,57.2,14.1,55.7,14.1z"/>
	<path class="st0" d="M63.9,9.9v3.8c0,0.1-0.1,0.1-0.1,0.1h-1.5c-0.1,0-0.1-0.1-0.1-0.1l0.1-3.8V3.8c0-0.1,0.1-0.1,0.1-0.1h1.5
		c0.1,0,0.1,0.1,0.1,0.1c0,0,0,0,0,0v1.6c0.6-1.2,1.8-2,3.1-2c1.4-0.1,2.6,0.8,2.9,2.1c0.5-1.3,1.8-2.1,3.2-2.1c2,0,3.2,1.3,3.2,4
		v2.5v3.8c0,0.1-0.1,0.1-0.1,0.1h-1.6c-0.1,0-0.1-0.1-0.1-0.1V9.9V7.5c0-1.9-0.8-2.7-2-2.7s-2,1-2.4,2.6v2.4v3.8
		c0,0.1-0.1,0.1-0.1,0.1h-1.4c-0.1,0-0.1-0.1-0.1-0.1V9.9V7.5c0-1.9-0.8-2.7-2-2.7c-1.2,0-2.1,1.1-2.5,3.1V9.9z"/>
	<path class="st0" d="M81.6,14.1c-2.7,0-4.4-1.2-4.5-3.6c0-0.1,0.1-0.1,0.1-0.1h1.5c0.1,0,0.1,0.1,0.1,0.1c0.1,1.6,1,2.3,2.8,2.3
		c1.5,0,2.5-0.6,2.5-1.8c0-2.7-6.9-0.5-6.9-4.6c0-2,1.6-3,4-3c2.4,0,4.1,1,4.2,3.1c0,0.1-0.1,0.1-0.1,0.1H84c-0.1,0-0.1-0.1-0.1-0.1
		c-0.1-1.3-1.1-1.9-2.6-1.9S79,5.2,79,6.3c0,2.5,6.9,0.3,6.9,4.6C85.9,12.9,84.1,14.1,81.6,14.1z"/>
	<path class="st0" d="M91.7,14c-1.3,0.1-2.5-0.6-3.2-1.7v1.4c0,0.1-0.1,0.1-0.1,0.1h-1.5c-0.1,0-0.1-0.1-0.1-0.1c0,0,0,0,0,0
		l0.1-7.5l-0.1-6.1c0-0.1,0-0.1,0.1-0.1c0,0,0,0,0,0h1.5c0.1,0,0.1,0.1,0.1,0.1v5.1c0.7-1.1,1.9-1.8,3.2-1.8c2.7,0,4.2,2.3,4.2,5.3
		S94.4,14,91.7,14z M91.3,12.7c2,0,2.9-1.6,2.9-3.9c0-2.4-0.9-4.1-2.8-4c-1.7,0-2.8,1.3-2.8,3.8S89.5,12.7,91.3,12.7z"/>
	<path class="st0" d="M105.7,10.3c0.1,0,0.1,0,0.1,0.1c0,0,0,0,0,0c-0.3,2.2-2.2,3.8-4.5,3.6c-3.2,0-4.9-2.2-4.9-5.3
		s1.8-5.4,4.8-5.4c2.9,0,4.7,2,4.7,5.4c0,0.1,0,0.1-0.1,0.1c0,0,0,0,0,0h-7.6c0.1,2.5,1.1,3.8,3.1,3.8c1.4,0.1,2.6-0.9,2.7-2.3
		c0-0.1,0.1-0.1,0.2-0.1L105.7,10.3z M101.2,4.7c-1.7,0-2.7,1.1-2.9,3h5.7c0.1-1.6-1.1-2.9-2.6-3C101.3,4.7,101.3,4.7,101.2,4.7z"/>
	<path class="st0" d="M106.9,13.8c-0.1,0-0.1-0.1-0.1-0.1l0.1-5.1l-0.1-4.8c0-0.1,0.1-0.1,0.1-0.1h1.5c0.1,0,0.1,0.1,0.1,0.1
		l-0.1,1.7c0.7-1.3,2-2,3.5-2c0.2,0,0.4,0,0.6,0.1c0.1,0,0.1,0.1,0.1,0.2V5c0,0.1,0,0.1-0.1,0.1c0,0,0,0,0,0c-0.2,0-0.4,0-0.6,0
		c-1.8-0.1-3.4,1.4-3.4,3.2c0,0,0,0.1,0,0.1v5.3c0,0.1-0.1,0.1-0.1,0.1L106.9,13.8z"/>
	<path class="st0" d="M113.4,13.8c-0.1,0-0.1-0.1-0.1-0.1V8.6V3.8c0-0.1,0.1-0.1,0.1-0.1h1.6c0.1,0,0.1,0.1,0.1,0.1v4.8v5.1
		c0,0.1-0.1,0.1-0.1,0.1H113.4z M113.4,2.5c-0.1,0-0.1-0.1-0.1-0.1V0.7c0-0.1,0.1-0.1,0.1-0.1h1.6c0.1,0,0.1,0.1,0.1,0.1v1.7
		c0,0.1-0.1,0.1-0.1,0.1L113.4,2.5z"/>
	<path class="st0" d="M120.7,14.1c-3,0-4.8-2.1-4.8-5.3s1.7-5.4,4.8-5.4c2.5,0,4.1,1.5,4.3,3.6c0,0.1,0,0.1-0.1,0.1c0,0,0,0,0,0
		h-1.4c-0.1,0-0.1-0.1-0.2-0.1c-0.1-1.3-1.3-2.4-2.6-2.3c-2,0-3,1.5-3,4s0.9,4,3,4c1.4,0.1,2.6-1,2.7-2.4c0-0.1,0-0.1,0-0.2
		c0-0.1,0.1-0.1,0.2-0.1h1.4c0.1,0,0.1,0.1,0.1,0.1c0,0,0,0,0,0C125.1,12.5,123.1,14.2,120.7,14.1C120.8,14.1,120.7,14.1,120.7,14.1
		z"/>
	<path class="st0" d="M130.6,4.8c-1.3,0-2.5,1.1-2.9,2.9l0.1,6c0,0.1-0.1,0.1-0.1,0.1h-1.5c-0.1,0-0.1-0.1-0.1-0.1l0.1-6.9l-0.1-6.7
		c0-0.1,0.1-0.1,0.1-0.1h1.5c0.1,0,0.1,0.1,0.1,0.1v5.2c0.7-1.2,1.9-1.9,3.3-1.9c2.2,0,3.5,1.3,3.5,4.3v2.1v4c0,0.1-0.1,0.1-0.1,0.1
		h-1.5c-0.1,0-0.1-0.1-0.1-0.1v-4V7.5C132.7,5.6,131.8,4.8,130.6,4.8z"/>
	<path class="st0" d="M140.4,13.6c0,0.1-0.1,0.2-0.1,0.2c-0.5,0.1-0.9,0.2-1.4,0.3c-1.5,0-2.7-0.8-2.7-3V5h-1.2
		c-0.1,0-0.1-0.1-0.1-0.1c0,0,0,0,0,0V3.8c0-0.1,0-0.1,0.1-0.1c0,0,0,0,0,0h1.2V1.2c0-0.1,0.1-0.1,0.1-0.1h1.5
		c0.1,0,0.1,0.1,0.1,0.1v2.4h2.4c0.1,0,0.1,0.1,0.1,0.1v1.1c0,0.1-0.1,0.1-0.1,0.1h-2.4V11c0,1.2,0.4,1.6,1.3,1.6
		c0.4,0,0.7,0,1.1-0.1c0.1,0,0.1,0,0.1,0.1c0,0,0,0,0,0L140.4,13.6z"/>
</g>
</svg>
