<?xml version="1.0" encoding="utf-8"?>
<!-- Generator: Adobe Illustrator 22.1.0, SVG Export Plug-In . SVG Version: 6.00 Build 0)  -->
<svg version="1.0" id="Layer_1" xmlns="http://www.w3.org/2000/svg" xmlns:xlink="http://www.w3.org/1999/xlink" x="0px" y="0px"
	 viewBox="0 0 213.1 214.6" style="enable-background:new 0 0 213.1 214.6;" xml:space="preserve">
<style type="text/css">
	.st0{fill:#FFFFFF;stroke:#000000;stroke-miterlimit:10;}
	.st1{fill:none;stroke:#000000;stroke-miterlimit:10;}
</style>
<rect x="0.5" y="66" class="st0" width="148.1" height="148.1"/>
<circle class="st0" cx="144.9" cy="68.2" r="67.7"/>
<circle class="st0" cx="148.6" cy="176" r="20.1"/>
<g>
	<path d="M15.6,36.2h-2V19.5h6.1c1.6,0,2.7,0.4,3.6,1.3c0.8,0.8,1.2,2,1.2,3.6c0,1.4-0.4,2.4-1.1,3.3c-0.7,0.8-1.7,1.3-3.1,1.4
		l4.3,7.2h-2.3l-4.1-7.2h-2.7V36.2z M19.7,27.4c0.8,0,1.5-0.2,2-0.6c0.5-0.4,0.7-1,0.7-1.8v-1.2c0-0.8-0.2-1.4-0.7-1.8
		c-0.5-0.4-1.1-0.6-2-0.6h-4v6.1H19.7z"/>
	<path d="M29.8,22h-0.2v14.2h-1.8V19.5h2.9l5.7,14h0.2v-14h1.8v16.8h-2.9L29.8,22z"/>
	<path d="M42.5,19.5h4.7c2,0,3.6,0.7,4.6,2.1c1,1.4,1.5,3.5,1.5,6.3s-0.5,4.9-1.5,6.3s-2.5,2.1-4.6,2.1h-4.7V19.5z M47.1,34.5
		c1.3,0,2.4-0.5,3-1.4c0.7-0.9,1-2.2,1-3.9v-2.6c0-1.7-0.3-3-1-3.9c-0.7-0.9-1.7-1.4-3-1.4h-2.6v13.2H47.1z"/>
	<path d="M58.8,36.2h-2V19.5h6.1c1.6,0,2.7,0.4,3.6,1.3c0.8,0.8,1.2,2,1.2,3.6c0,1.4-0.4,2.4-1.1,3.3s-1.7,1.3-3.1,1.4l4.3,7.2h-2.3
		l-4.1-7.2h-2.7V36.2z M62.9,27.4c0.8,0,1.5-0.2,2-0.6c0.5-0.4,0.7-1,0.7-1.8v-1.2c0-0.8-0.2-1.4-0.7-1.8c-0.5-0.4-1.1-0.6-2-0.6h-4
		v6.1H62.9z"/>
</g>
<rect x="47.9" y="140.1" class="st0" width="19.9" height="19.9"/>
<line class="st1" x1="47.9" y1="89.3" x2="115.5" y2="156.9"/>
</svg>
