<?xml version="1.0" encoding="utf-8"?>
<!-- Generator: Adobe Illustrator 22.1.0, SVG Export Plug-In . SVG Version: 6.00 Build 0)  -->
<svg version="1.1" baseProfile="tiny" id="Layer_1" xmlns="http://www.w3.org/2000/svg" xmlns:xlink="http://www.w3.org/1999/xlink"
	 x="0px" y="0px" viewBox="0 0 512 512" xml:space="preserve">
<g>
	<g>
		<g>
			<path d="M256,0C114.1,0-1,115.1-1,257s115.1,257,257,257s257-115.1,257-257S397.9,0,256,0z M256,481.9
				C131.8,481.9,31.1,381.2,31.1,257S131.8,32.1,256,32.1S480.9,132.8,480.9,257S380.2,481.9,256,481.9z"/>
			<path d="M416.6,144.6H95.4c-8.9,0-16.1,7.2-16.1,16.1v48.2c0,26.6,21.6,48.2,48.2,48.2h64.2c26.6,0,48.2-21.6,48.2-48.2v-32.1
				h32.1v32.1c0,26.6,21.6,48.2,48.2,48.2h64.2c26.6,0,48.2-21.6,48.2-48.2v-48.2C432.7,151.8,425.5,144.6,416.6,144.6z"/>
			<polygon points="292.8,293.8 256,330.7 219.2,293.8 196.4,316.6 233.4,353.4 196.4,390.2 219.2,413 256,376 292.8,413 
				315.6,390.2 278.6,353.4 315.6,316.6 			"/>
		</g>
	</g>
</g>
</svg>
