<?xml version="1.0" encoding="utf-8"?>
<!-- Generator: Adobe Illustrator 22.1.0, SVG Export Plug-In . SVG Version: 6.00 Build 0)  -->
<svg version="1.1" id="Layer_1" xmlns="http://www.w3.org/2000/svg" xmlns:xlink="http://www.w3.org/1999/xlink" x="0px" y="0px"
	 viewBox="0 0 24 24" style="enable-background:new 0 0 24 24;" xml:space="preserve">
<g>
	<g>
		<g>
			<path d="M12,0C5.4,0,0,5.4,0,12s5.4,12,12,12s12-5.4,12-12S18.6,0,12,0z M12,22.5C6.2,22.5,1.5,17.8,1.5,12S6.2,1.5,12,1.5
				S22.5,6.2,22.5,12S17.8,22.5,12,22.5z"/>
			<path d="M19.5,6.7h-15c-0.4,0-0.8,0.3-0.8,0.8v2.3C3.7,11,4.8,12,6,12h3c1.2,0,2.2-1,2.2-2.2V8.2h1.5v1.5c0,1.2,1,2.2,2.2,2.2h3
				c1.2,0,2.2-1,2.2-2.2V7.5C20.2,7.1,19.9,6.7,19.5,6.7z"/>
			<polygon points="13.7,13.7 12,15.4 10.3,13.7 9.2,14.8 10.9,16.5 9.2,18.2 10.3,19.3 12,17.6 13.7,19.3 14.8,18.2 13.1,16.5 
				14.8,14.8 			"/>
		</g>
	</g>
</g>
</svg>
